<svg width="16" height="16" viewBox="0 0 16 16" fill="none" xmlns="http://www.w3.org/2000/svg">
  <path d="M7.99998 0.907227C3.58445 0.907227 0 4.49168 0 8.90723C0 12.7261 2.64859 16.307 6.34511 16.7816C6.8452 16.8452 7.07714 16.4582 7.07714 16.1369C7.07714 15.9206 7.07714 15.1722 7.07714 14.2902C4.27295 14.9139 3.65935 13.5305 3.65935 13.5305C3.20549 12.6975 2.64977 12.4449 2.64977 12.4449C1.94981 11.9634 2.68006 11.9679 2.68006 11.9679C3.38002 12.0137 3.82519 12.7746 3.82519 12.7746C4.53971 13.8534 5.73184 13.5112 6.39162 13.2054C6.49616 12.8061 6.77145 12.5069 7.08059 12.3069C5.17926 12.1069 3.56989 11.4201 3.56989 8.12667C3.56989 7.0734 3.86965 6.18012 4.39603 5.51824C4.31059 5.27506 4.12034 4.98409 4.81046 4.78193C5.37198 4.62698 6.19964 5.1467 6.48623 5.3915C7.00678 5.3915 7.46646 5.37015 7.85584 5.29973C8.16497 5.05577 8.55435 4.78193 9.24447 4.98409C9.93459 5.18625 9.74434 5.47722 9.65889 5.7204C10.1853 6.38228 10.4851 7.27556 10.4851 8.32634C10.4851 11.4254 8.87574 12.1069 6.97441 12.3069C7.28355 12.5069 7.55884 12.8061 7.66338 13.2054C8.32317 13.5112 9.5153 13.8534 10.2298 12.7746C10.2298 12.7746 10.675 12.0137 11.375 11.9679C11.375 11.9679 12.1052 11.9634 11.4052 12.4449C11.4052 12.4449 10.8494 12.6975 10.3956 13.5305C10.3956 13.5305 9.78202 14.9139 6.97783 14.2902C6.97783 15.1722 6.97783 15.9206 6.97783 16.1369C6.97783 16.4582 7.20977 16.8452 7.70986 16.7816C11.4064 16.307 14.055 12.7261 14.055 8.90723C14.055 4.49168 10.4706 0.907227 7.99998 0.907227Z" fill="white"/>
</svg>