<?xml version="1.0" standalone="no"?>
<!DOCTYPE svg PUBLIC "-//W3C//DTD SVG 20010904//EN"
 "http://www.w3.org/TR/2001/REC-SVG-20010904/DTD/svg10.dtd">
<svg version="1.0" xmlns="http://www.w3.org/2000/svg"
 width="666.000000pt" height="375.000000pt" viewBox="0 0 666.000000 375.000000"
 preserveAspectRatio="xMidYMid meet">

<g transform="translate(0.000000,375.000000) scale(0.100000,-0.100000)"
fill="#000000" stroke="none">
<path d="M3837 2949 c-16 -10 -16 -12 3 -36 10 -14 22 -41 26 -61 l7 -36 18
23 c33 40 22 87 -26 114 -6 3 -18 1 -28 -4z"/>
<path d="M3947 2669 c-27 -40 -6 -108 23 -75 8 10 9 28 3 58 l-9 43 -17 -26z"/>
<path d="M2930 2488 c-12 -24 -38 -68 -56 -98 -17 -30 -98 -172 -179 -315 -81
-143 -164 -289 -185 -325 -21 -36 -83 -144 -138 -240 -54 -96 -136 -239 -181
-317 -44 -78 -81 -145 -81 -148 0 -3 59 -5 130 -5 72 0 130 -3 130 -7 0 -5 -9
-21 -20 -38 -11 -16 -20 -33 -20 -37 0 -5 50 -8 110 -8 61 0 110 -3 110 -7 0
-5 -12 -26 -25 -48 -14 -22 -25 -43 -25 -47 0 -5 279 -8 620 -8 542 0 625 -2
651 -16 52 -26 117 -28 186 -5 45 15 87 21 154 21 l91 0 -40 73 c-39 71 -39
73 -25 112 26 72 19 174 -26 376 -22 103 -41 202 -42 220 0 19 -4 43 -8 54 -6
16 -11 11 -25 -30 -10 -28 -20 -56 -22 -64 -7 -23 -12 -9 -24 64 -7 43 -20 84
-36 106 -27 39 -33 109 -10 128 7 6 26 8 44 5 29 -6 31 -4 42 37 13 47 6 183
-11 254 -6 22 -24 56 -39 77 -16 20 -37 52 -46 72 l-17 35 -33 -37 c-26 -30
-35 -35 -45 -25 -10 11 -10 30 0 104 7 50 11 92 9 94 -7 8 -149 -270 -164
-322 -12 -40 -15 -83 -12 -152 5 -110 20 -148 72 -179 23 -14 36 -30 41 -52 8
-36 -3 -180 -13 -180 -4 0 -15 15 -26 33 -10 17 -61 106 -114 197 -53 91 -114
199 -137 240 -90 162 -136 240 -145 245 -6 3 -17 -10 -27 -30 -9 -19 -22 -34
-27 -32 -6 2 -33 43 -61 90 -27 48 -52 87 -55 87 -3 0 -22 -30 -43 -65 -21
-36 -42 -63 -47 -60 -4 3 -35 52 -67 110 -32 58 -61 105 -64 105 -3 0 -16 -19
-29 -42z m191 -231 c38 -25 74 -93 81 -152 3 -22 3 -32 1 -22 -3 10 -11 21
-19 24 -8 3 -14 14 -14 24 0 34 -40 99 -73 120 -63 40 -180 -3 -277 -102 -83
-84 -113 -152 -117 -263 -1 -49 -6 -92 -9 -95 -4 -3 -4 2 -1 12 4 9 3 17 -2
17 -5 0 -11 17 -13 37 -27 227 283 506 443 400z m797 -79 c27 -45 46 -131 38
-173 -4 -18 -21 -55 -40 -82 -18 -26 -36 -57 -40 -68 -7 -18 -10 -17 -42 20
-57 66 -67 90 -62 165 2 38 10 75 18 85 13 16 15 15 23 -7 9 -22 11 -20 23 21
24 79 50 91 82 39z m-724 -257 c-12 -69 -65 -220 -109 -312 -24 -52 -42 -95
-41 -97 2 -1 30 9 61 23 32 14 60 23 63 21 4 -5 -82 -46 -125 -60 -10 -3 -30
-27 -44 -54 -69 -124 -152 -205 -194 -188 -52 20 57 164 170 223 39 21 159
298 186 429 9 45 16 61 26 57 10 -4 12 -16 7 -42z m247 -219 c-6 -59 -11 -144
-12 -189 -1 -46 -5 -83 -10 -83 -5 0 -9 18 -9 40 0 25 -5 40 -12 40 -10 0 -10
2 0 9 17 10 47 294 32 299 -6 2 -7 8 -4 14 4 7 10 4 16 -6 6 -10 5 -57 -1
-124z m-61 -9 c-11 -17 -11 -17 -6 0 3 10 6 24 7 30 0 9 2 9 5 0 3 -7 0 -20
-6 -30z m-573 -48 c33 -42 88 -80 134 -94 33 -9 33 -9 6 -10 -15 -1 -44 8 -65
18 -48 25 -143 121 -120 121 10 0 30 -16 45 -35z m550 -27 c-3 -8 -6 -5 -6 6
-1 11 2 17 5 13 3 -3 4 -12 1 -19z m540 -49 c10 -91 56 -160 86 -130 22 22 27
9 27 -76 1 -49 7 -117 15 -153 8 -36 14 -101 15 -146 0 -71 -3 -85 -28 -125
-53 -81 -78 -99 -140 -99 -49 0 -58 3 -87 35 -62 65 -67 146 -19 312 27 93 29
124 13 189 -13 49 -8 64 16 44 9 -7 18 -11 20 -8 3 2 12 43 20 90 26 152 49
177 62 67z m-416 -29 c-13 -11 -28 -20 -35 -20 -6 0 3 9 19 19 39 25 46 25 16
1z m-156 -31 c-4 -12 -10 -17 -14 -11 -3 5 -15 12 -26 15 -15 4 -14 5 8 6 15
0 27 6 27 13 0 6 3 9 6 5 3 -3 3 -15 -1 -28z m-115 -7 c-19 -10 -37 -17 -39
-15 -9 6 35 32 54 33 14 0 10 -5 -15 -18z m92 -49 c-6 -10 -21 -27 -33 -38
-19 -16 -18 -14 4 13 15 19 27 38 27 44 0 6 3 9 6 6 3 -4 1 -15 -4 -25z m-78
-43 c10 -13 9 -13 -6 -1 -10 7 -18 21 -17 30 0 13 1 14 6 1 3 -8 11 -22 17
-30z m89 -202 c-5 -7 -19 -30 -32 -50 -25 -41 -39 -52 -20 -15 15 26 51 77 56
77 2 0 0 -6 -4 -12z m-713 -55 c-11 -17 -11 -17 -6 0 3 10 7 28 7 40 2 22 2
22 6 0 2 -12 -1 -30 -7 -40z m320 -37 c0 -2 -8 -10 -17 -17 -16 -13 -17 -12
-4 4 13 16 21 21 21 13z m283 -11 c-3 -9 -8 -14 -10 -11 -3 3 -2 9 2 15 9 16
15 13 8 -4z m115 1 c-7 -8 -15 -12 -17 -11 -5 6 10 25 20 25 5 0 4 -6 -3 -14z
m92 10 c0 -2 -7 -7 -16 -10 -8 -3 -12 -2 -9 4 6 10 25 14 25 6z m-187 -21 c-3
-9 -8 -14 -10 -11 -3 3 -2 9 2 15 9 16 15 13 8 -4z m-657 -27 c-9 -12 -16 -19
-16 -15 0 11 24 47 28 42 2 -2 -3 -14 -12 -27z m591 10 c-3 -8 -6 -5 -6 6 -1
11 2 17 5 13 3 -3 4 -12 1 -19z"/>
<path d="M2935 1431 c-67 -40 -143 -147 -121 -168 3 -4 22 9 42 28 38 35 119
148 112 154 -2 3 -17 -4 -33 -14z"/>
</g>
</svg>
